# xmcd
#
# Track frame offsets:
#	150
#	15740
#	29677
#	42457
#	55427
#	71132
#	83062
#	103210
#	118400
#	143282
#	157250
#	170920
#	183842
#	193925
#	223072
#	235585
#	254120
#	267835
#	273085
#	296457
#
# Disc length: 4037 seconds
#
# Revision: 0
# Processed by: cddbd v1.5.2PL0 Copyright (c) Steve Scherf et al.
# Submitted via: dBpowerAMP V4.0
#
DISCID=3c0fc314
DTITLE=Various Artist - Blueskvarter Chicago 1964 Vol 3 CD2
DYEAR=1900
DGENRE=Chicago Blues
TTITLE0=Willie Mabon - Somebody's Got To Pay
TTITLE1=Big Walter "Shakey" Horton - West Side Blues
TTITLE2=Big Walter "Shakey" Horton - Tin Pan Alley
TTITLE3=Big Walter "Shakey" Horton - This is it
TTITLE4=Sunnyland Slim - Prison Bound
TTITLE5=Paul Butterfield Blues Band - Hot Potatoes
TTITLE6=Paul Butterfield Blues Band - One Room Country Shack
TTITLE7=Little Brother Montgomery - Vicksburg Blues
TTITLE8=Johnny Young - You Got Bad Blood, I Think You Need A Shot
TTITLE9=Washboard Sam - Mama Don't Allow
TTITLE10=Big Joe WIlliams - Rootin' Groundhog
TTITLE11=Big Joe WIlliams - Southern Blues
TTITLE12=Big Joe WIlliams - King's Highway Blues
TTITLE13=Champion Jack Dupree - Improvisation and Interview #1
TTITLE14=Champion Jack Dupree - Drive 'em Down Special
TTITLE15=Champion Jack Dupree - Improvisation and Interview #2
TTITLE16=Champion Jack Dupree - I Feel Like A Millionare
TTITLE17=Champion Jack Dupree - Improvisation and Interview #3
TTITLE18=Champion Jack Dupree - Barrelhouse Woman
TTITLE19=Champion Jack Dupree - Improvisation and Interview #4
EXTD=I fucking rule and my webname is mike haggar/the horny antilope
EXTT0=
EXTT1=
EXTT2=
EXTT3=
EXTT4=
EXTT5=
EXTT6=
EXTT7=
EXTT8=
EXTT9=
EXTT10=
EXTT11=
EXTT12=
EXTT13=
EXTT14=
EXTT15=
EXTT16=
EXTT17=
EXTT18=
EXTT19=
PLAYORDER=
